<svg xmlns="http://www.w3.org/2000/svg" width="154.988" height="140.814" viewBox="0 0 154.988 140.814">
  <g id="Group_2642" data-name="Group 2642" transform="translate(1110.46 -1091.291)">
    <ellipse id="Ellipse_52" data-name="Ellipse 52" cx="33.385" cy="30.787" rx="33.385" ry="30.787" transform="translate(-1062.734 1132.568)" fill="#c94b4b"/>
    <g id="Group_2641" data-name="Group 2641" transform="translate(-1110.46 1091.291)">
      <path id="Path_3332" data-name="Path 3332" d="M-958.061,1143.591a68.1,68.1,0,0,0-14.975-26.537c-14.212-15.73-35.777-25.763-59.927-25.763a85.519,85.519,0,0,0-11.714.8,81.981,81.981,0,0,0-27.536,8.886,74.005,74.005,0,0,0-29.879,28.866,65.009,65.009,0,0,0-8.252,28.045c-.077,1.259-.115,2.531-.115,3.809a64.443,64.443,0,0,0,2.718,18.549,66.784,66.784,0,0,0,8.194,17.5A74.841,74.841,0,0,0-1072,1222.533a82.4,82.4,0,0,0,28.914,8.977,85.827,85.827,0,0,0,10.125.595c42.8,0,77.492-31.522,77.492-70.407A64.353,64.353,0,0,0-958.061,1143.591Zm-74.9,43.9a29.587,29.587,0,0,1-21.392-8.837,24.378,24.378,0,0,1-7-16.96,23.663,23.663,0,0,1,2.32-10.221c4.352-9.164,14.39-15.576,26.075-15.576h.115a29.248,29.248,0,0,1,23.217,11.1,24.08,24.08,0,0,1,5.058,14.7,23.6,23.6,0,0,1-.3,3.756c-1.643,10.24-9.908,18.53-20.725,21.162A31.141,31.141,0,0,1-1032.964,1187.495Z" transform="translate(1110.46 -1091.291)" fill="#dc5853"/>
      <path id="Path_3333" data-name="Path 3333" d="M-1055.692,1206.8c-.88-56.95,67.26-70.334,66.376-54.975-.256,4.449-4.874,4.812-4.752,4.753-35.657,2.9-51.866,43.241-30.621,67.615,11.4,13.082-8.37,30.349-19.789,17.249C-1047.014,1238.53-1055.407,1224.916-1055.692,1206.8Z" transform="translate(1071.561 -1130.1)" fill="#8e8a27" opacity="0.37" style="mix-blend-mode: screen;isolation: isolate"/>
      <path id="Path_3334" data-name="Path 3334" d="M-774.431,1187.865c17.693,57.509-50.667,87.941-52.795,71.559a5.033,5.033,0,0,1,3.817-5.559c34.95-9.02,33.1-42.94,33.121-42.989-.139-.335.635-20.615-18.524-32.88-13.588-8.7-.448-29.267,13.159-20.555C-789,1161.7-778.812,1173.79-774.431,1187.865Z" transform="translate(909.301 -1136.784)" fill="#8e8a27" opacity="0.37" style="mix-blend-mode: screen;isolation: isolate"/>
    </g>
  </g>
</svg>
